<?xml version="1.0" encoding="UTF-8"?>
<svg xmlns="http://www.w3.org/2000/svg" width="595.281" height="788.913" viewBox="0 0 595.281 788.913">
  <g id="Gruppe_1858" data-name="Gruppe 1858" transform="translate(-1047 -187)">
    <rect id="Rechteck_17079" data-name="Rechteck 17079" width="595.281" height="788.913" transform="translate(1047 187)" fill="#1f1f1e"></rect>
    <path id="Pfad_3003" data-name="Pfad 3003" d="M30.626,758.041H564.211V31.062H30.626Zm539.366,5.918H24.845V25.138H569.992Z" transform="translate(1047.002 187)" fill="#b59063"></path>
    <path id="Pfad_3004" data-name="Pfad 3004" d="M80.217,531.626A17.472,17.472,0,0,0,67.14,537.11a19.908,19.908,0,0,0,0,27.242,17.467,17.467,0,0,0,13.077,5.478,18.134,18.134,0,0,0,8.353-1.967l-5.293-7.207,3.873-2.845,5.389,7.3c.262-.244.511-.494.755-.755a19.99,19.99,0,0,0,0-27.242,17.528,17.528,0,0,0-13.077-5.484m16.529,2.122a24.736,24.736,0,0,1,0,33.961c-.422.446-.879.879-1.361,1.3l6.233,8.449-3.9,2.876-6.268-8.568a22.535,22.535,0,0,1-11.229,2.9,22.1,22.1,0,0,1-16.523-6.963,24.717,24.717,0,0,1,0-33.961,22.122,22.122,0,0,1,16.523-6.964,22.137,22.137,0,0,1,16.529,6.964" transform="translate(1047.002 187)" fill="#9fa0a1"></path>
    <path id="Pfad_3005" data-name="Pfad 3005" d="M153.372,527.906v30a16.951,16.951,0,1,1-33.9,0v-30h4.813v30a12.124,12.124,0,0,0,24.247,0v-30Z" transform="translate(1047.002 187)" fill="#9fa0a1"></path>
    <rect id="Rechteck_17080" data-name="Rechteck 17080" width="595.281" height="788.913" transform="translate(1047 187)" fill="none"></rect>
    <path id="Pfad_3006" data-name="Pfad 3006" d="M175.369,548.429h16.767v4.842H175.369v15.68h20.462v4.842H170.556V527.907h25.275v4.813H175.369Z" transform="translate(1047.002 187)" fill="#9fa0a1"></path>
    <path id="Pfad_3007" data-name="Pfad 3007" d="M215.982,527.906v41.079h26.243V573.8H211.17V527.906Z" transform="translate(1047.002 187)" fill="#9fa0a1"></path>
    <path id="Pfad_3008" data-name="Pfad 3008" d="M261.711,527.906v41.079h26.243V573.8H256.9V527.906Z" transform="translate(1047.002 187)" fill="#9fa0a1"></path>
    <path id="Pfad_3009" data-name="Pfad 3009" d="M307.439,548.429h16.767v4.842H307.439v15.68H327.9v4.842H302.626V527.907H327.9v4.813H307.439Z" transform="translate(1047.002 187)" fill="#9fa0a1"></path>
    <path id="Pfad_3010" data-name="Pfad 3010" d="M343.24,573.8V527.452l32.179,34.989V527.9h4.813v46.92l-32.179-34.989V573.8Z" transform="translate(1047.002 187)" fill="#9fa0a1"></path>
    <path id="Pfad_3011" data-name="Pfad 3011" d="M433.8,527.906V573.8h-4.842V553.27H402.225V573.8h-4.813V527.906h4.813v20.522h26.731V527.906Z" transform="translate(1047.002 187)" fill="#9fa0a1"></path>
    <path id="Pfad_3012" data-name="Pfad 3012" d="M473.048,531.809a17.489,17.489,0,0,0-13.077,5.478,19.953,19.953,0,0,0,0,27.277,18.348,18.348,0,0,0,26.154,0,20.034,20.034,0,0,0,0-27.277,17.545,17.545,0,0,0-13.077-5.478m16.529,2.121a24.774,24.774,0,0,1,0,33.991,23.161,23.161,0,0,1-33.052,0,24.755,24.755,0,0,1,0-33.991,23.16,23.16,0,0,1,33.052,0" transform="translate(1047.002 187)" fill="#9fa0a1"></path>
    <rect id="Rechteck_17081" data-name="Rechteck 17081" width="595.281" height="788.913" transform="translate(1047 187)" fill="none"></rect>
    <path id="Pfad_3013" data-name="Pfad 3013" d="M517.114,548.46h17.4V553.3h-17.4v20.492H512.3V527.908h26.03v4.813H517.114Z" transform="translate(1047.002 187)" fill="#9fa0a1"></path>
    <path id="Pfad_3014" data-name="Pfad 3014" d="M61.318,595.405v41.079h25.21V641.3H56.7V595.405Z" transform="translate(1047.002 187)" fill="#9fa0a1"></path>
    <path id="Pfad_3015" data-name="Pfad 3015" d="M125.917,595.405v30a16.689,16.689,0,0,1-4.794,11.983,15.794,15.794,0,0,1-23,0A16.738,16.738,0,0,1,93.352,625.4v-30h4.623v30a11.935,11.935,0,0,0,3.434,8.567,11.3,11.3,0,0,0,16.428,0,11.959,11.959,0,0,0,3.428-8.567v-30Z" transform="translate(1047.002 187)" fill="#9fa0a1"></path>
    <rect id="Rechteck_17082" data-name="Rechteck 17082" width="595.281" height="788.913" transform="translate(1047 187)" fill="none"></rect>
    <path id="Pfad_3016" data-name="Pfad 3016" d="M132.134,641.295l17.385-22.821L131.962,595.4h5.9l14.6,19.191L167.023,595.4h5.936L155.4,618.473l17.355,22.821h-5.9l-14.39-18.947-14.4,18.947Z" transform="translate(1047.002 187)" fill="#9fa0a1"></path>
    <path id="Pfad_3017" data-name="Pfad 3017" d="M211.562,595.405v30a16.69,16.69,0,0,1-4.795,11.983,15.793,15.793,0,0,1-23,0A16.738,16.738,0,0,1,179,625.4v-30h4.622v30a11.94,11.94,0,0,0,3.434,8.567,11.3,11.3,0,0,0,16.428,0,11.956,11.956,0,0,0,3.429-8.567v-30Z" transform="translate(1047.002 187)" fill="#9fa0a1"></path>
    <path id="Pfad_3018" data-name="Pfad 3018" d="M225.427,600.251v20.278h11.859a9.129,9.129,0,0,0,6.862-2.994,10.334,10.334,0,0,0,0-14.319,9.162,9.162,0,0,0-6.862-2.965Zm20.147,41.044-10-15.953H225.427v15.953H220.8V595.4h16.482a13.575,13.575,0,0,1,10.148,4.39,15.375,15.375,0,0,1,0,21.158,13.911,13.911,0,0,1-6.631,3.939l10.267,16.4Z" transform="translate(1047.002 187)" fill="#9fa0a1"></path>
    <rect id="Rechteck_17083" data-name="Rechteck 17083" width="595.281" height="788.913" transform="translate(1047 187)" fill="none"></rect>
    <path id="Pfad_3019" data-name="Pfad 3019" d="M296.043,595.405l-17.735,30.753V641.3h-4.622V626.158L255.92,595.405H261.3l14.711,25.429L290.7,595.405Z" transform="translate(1047.002 187)" fill="#9fa0a1"></path>
    <path id="Pfad_3020" data-name="Pfad 3020" d="M324.993,600.251v20.278h11.859a9.131,9.131,0,0,0,6.863-2.994,10.336,10.336,0,0,0,0-14.319,9.164,9.164,0,0,0-6.863-2.965Zm20.148,41.044-10-15.953H324.993v15.953h-4.622V595.4h16.481A13.574,13.574,0,0,1,347,599.793a15.373,15.373,0,0,1,0,21.158,13.9,13.9,0,0,1-6.63,3.939l10.266,16.4Z" transform="translate(1047.002 187)" fill="#9fa0a1"></path>
    <rect id="Rechteck_17084" data-name="Rechteck 17084" width="595.281" height="788.913" transform="translate(1047 187)" fill="none"></rect>
    <path id="Pfad_3021" data-name="Pfad 3021" d="M363.307,615.928h16.107v4.842H363.307v15.68h19.654v4.842H358.685V595.406h24.277v4.813H363.307Z" transform="translate(1047.002 187)" fill="#9fa0a1"></path>
    <path id="Pfad_3022" data-name="Pfad 3022" d="M396.651,635.513a9.033,9.033,0,0,0,5.638,2,8.742,8.742,0,0,0,6.251-2.6,7.747,7.747,0,0,0,2.56-5.722q0-4.17-2.673-6.143a17.044,17.044,0,0,0-5.876-2.24q-6.043-1.515-8.313-3.327-3.814-3.057-3.808-9.78a12.917,12.917,0,0,1,3.719-9.322,12.3,12.3,0,0,1,15.555-1.907,12.718,12.718,0,0,1,4.682,5.264l-4.129,2.18a8.065,8.065,0,0,0-2.965-3.327,7.737,7.737,0,0,0-9.857,1.212,8.213,8.213,0,0,0-2.353,5.9q0,4.18,2.674,6.143a17.867,17.867,0,0,0,5.87,2.24q6.051,1.515,8.318,3.334,3.805,3.057,3.808,9.773a12.367,12.367,0,0,1-4.069,9.233,13.05,13.05,0,0,1-9.394,3.939,13.359,13.359,0,0,1-8.4-2.97,12.4,12.4,0,0,1-4.765-7.445l4.533-1a7.676,7.676,0,0,0,2.995,4.569" transform="translate(1047.002 187)" fill="#9fa0a1"></path>
    <path id="Pfad_3023" data-name="Pfad 3023" d="M444.879,599.308a16.48,16.48,0,0,0-12.56,5.478,20.559,20.559,0,0,0,0,27.277,17.138,17.138,0,0,0,25.12,0,20.646,20.646,0,0,0,0-27.277,16.533,16.533,0,0,0-12.56-5.478m15.876,2.121a25.522,25.522,0,0,1,0,33.991,21.641,21.641,0,0,1-31.751,0,25.522,25.522,0,0,1,0-33.991,21.641,21.641,0,0,1,31.751,0" transform="translate(1047.002 187)" fill="#9fa0a1"></path>
    <path id="Pfad_3024" data-name="Pfad 3024" d="M479.942,600.251v20.278H491.8a9.138,9.138,0,0,0,6.862-2.994,10.334,10.334,0,0,0,0-14.319,9.172,9.172,0,0,0-6.862-2.965Zm20.147,41.044-10-15.953H479.942v15.953h-4.623V595.4H491.8a13.575,13.575,0,0,1,10.148,4.39,15.375,15.375,0,0,1,0,21.158,13.911,13.911,0,0,1-6.631,3.939l10.267,16.4Z" transform="translate(1047.002 187)" fill="#9fa0a1"></path>
    <rect id="Rechteck_17085" data-name="Rechteck 17085" width="595.281" height="788.913" transform="translate(1047 187)" fill="none"></rect>
    <path id="Pfad_3025" data-name="Pfad 3025" d="M510.725,595.405h27.634v4.842H526.826V641.3h-4.569v-41.05H510.725Z" transform="translate(1047.002 187)" fill="#9fa0a1"></path>
    <path id="Pfad_3026" data-name="Pfad 3026" d="M278.862,681.76a1.037,1.037,0,0,0,.779-.339,1.129,1.129,0,0,0,.321-.808,1.161,1.161,0,0,0-.321-.82,1.039,1.039,0,0,0-.779-.338,1.021,1.021,0,0,0-.766.338,1.161,1.161,0,0,0-.321.82,1.129,1.129,0,0,0,.321.808,1.019,1.019,0,0,0,.766.339" transform="translate(1047.002 187)" fill="#b59063"></path>
    <path id="Pfad_3027" data-name="Pfad 3027" d="M267.587,421.786c-34.081-1.943-57.793-14.77-74.2-33a83.977,83.977,0,0,1,10.029-2.43c25.471-4.587,52.6,1.337,70.87,7.106l.083.03a240.513,240.513,0,0,0,63.657,9.126c2.406,0,4.842-.048,7.29-.143-14.64,10.517-33.362,17.563-57.264,19.2q-5.232.49-10.861.5-4.963,0-9.607-.392ZM161.639,226.247c20.824-109.959,112.269-107.065,112.269-107.065v.006c1.082-.03,2.175-.048,3.286-.048,1.016,0,2.014.018,3.012.042,4.058-.072,91.784-.339,112.122,107.065,0,0,7.385,42.564.154,88-35.666,13.184-100.654-1.747-102.591-2.2-32.464-8.068-52.16-12.037-52.986-12.2l-.683-.113c-40.01-5.27-63.711,1.473-75.79,7.2-5.406-42.589,1.207-80.685,1.207-80.685m17.907,130.272c9.934-2.988,27.295-5.971,53.669-3.25,2.745.481,22.162,3.957,52.1,10.552l.1.024a340.229,340.229,0,0,0,62.581,6.369,198,198,0,0,0,26.9-1.7,114.888,114.888,0,0,1-6.517,10.445l-2.116.25-.439.089c-39.036,8.092-84.024-5.187-85.355-5.585-50.473-15.935-83.442-8.823-99.769-2.347a129.567,129.567,0,0,1-6.643-12.941c1.61-.635,3.44-1.283,5.5-1.9m-15.293-27.954c.9-.672,5.6-3.934,15.174-6.542,10.012-2.721,27.444-5.234,53.741-1.812,2.733.552,22.049,4.545,51.791,11.942l.1.024c2.056.487,34.782,8.128,68.773,8.128a161.145,161.145,0,0,0,33.688-3.185q-1.194,4.226-2.6,8.4c-36.3,9.975-93.412-1.551-95.23-1.925-32.666-7.2-52.457-10.636-53.289-10.778l-.683-.1c-33.57-3.512-55.511,1.075-68.767,6.2q-1.506-5.152-2.7-10.356m301.232,101.07c-10.95,4.278-10.808,15.109-13.8,22.666s-15.216,17.534-42.8,17.534-54.756-10.41-84.618-21.526c-15.424-5.74-30.848-13.3-49.088-19.28.671.012,1.337.029,2.014.029,84.731,0,158.435-70.162,158.435-158.4s-73.7-158.4-158.435-158.4-158.435,70.163-158.435,158.4c0,68.856,44.87,126.7,104.843,148.792-3.06-.142-6.191-.214-9.411-.214-50.342,0-70.68,27.081-70.68,27.081l.428.428c.428.428,1.563-1.141,5.264-3.565s17.92-9.833,37.544-10.4,41.382,6.411,88.742,28.364,79.639,25.941,94.285,25.941,43.093-2.7,65.564-14.682S470.606,446.74,475.3,437.62c4.688-9.411,1.135-12.406-9.815-7.985" transform="translate(1047.002 187)" fill="#b59063"></path>
    <path id="Pfad_3028" data-name="Pfad 3028" d="M106.584,673.681v7.807h3.233a3.9,3.9,0,0,0,0-7.807Zm3.233-1.86a5.764,5.764,0,0,1,0,11.527h-3.233v6.173h-1.871v-17.7Z" transform="translate(1047.002 187)" fill="#b59063"></path>
    <rect id="Rechteck_17086" data-name="Rechteck 17086" width="595.281" height="788.913" transform="translate(1047 187)" fill="none"></rect>
    <path id="Pfad_3029" data-name="Pfad 3029" d="M133.518,683.275l-3.013-7.088-3.024,7.088Zm.748,1.753h-7.534l-1.913,4.5h-2.008l7.706-18.08,7.671,18.08h-2.009Z" transform="translate(1047.002 187)" fill="#b59063"></path>
    <path id="Pfad_3030" data-name="Pfad 3030" d="M150.576,687.293a3.751,3.751,0,0,0,2.264.773,3.613,3.613,0,0,0,2.513-1,2.952,2.952,0,0,0,1.028-2.211,2.7,2.7,0,0,0-1.075-2.37,7.014,7.014,0,0,0-2.359-.862,9.619,9.619,0,0,1-3.339-1.283,4.465,4.465,0,0,1-1.533-3.773,5.091,5.091,0,0,1,5.092-5.08,5.1,5.1,0,0,1,4.533,2.781l-1.658.837a3.225,3.225,0,0,0-6.1,1.462,2.7,2.7,0,0,0,1.076,2.371,7.407,7.407,0,0,0,2.359.861,9.648,9.648,0,0,1,3.339,1.284,4.477,4.477,0,0,1,1.527,3.772,4.681,4.681,0,0,1-1.634,3.565,5.361,5.361,0,0,1-3.773,1.515,5.525,5.525,0,0,1-3.375-1.14,4.808,4.808,0,0,1-1.913-2.876l1.824-.386a2.946,2.946,0,0,0,1.2,1.764" transform="translate(1047.002 187)" fill="#b59063"></path>
    <path id="Pfad_3031" data-name="Pfad 3031" d="M171.394,687.293a3.751,3.751,0,0,0,2.264.773,3.613,3.613,0,0,0,2.513-1,2.952,2.952,0,0,0,1.028-2.211,2.694,2.694,0,0,0-1.076-2.37,7.005,7.005,0,0,0-2.359-.862,9.619,9.619,0,0,1-3.339-1.283,4.465,4.465,0,0,1-1.533-3.773,5.092,5.092,0,0,1,5.092-5.08,5.107,5.107,0,0,1,4.534,2.781l-1.658.837a3.225,3.225,0,0,0-6.1,1.462,2.7,2.7,0,0,0,1.075,2.371,7.407,7.407,0,0,0,2.359.861,9.648,9.648,0,0,1,3.339,1.284,4.477,4.477,0,0,1,1.527,3.772,4.678,4.678,0,0,1-1.634,3.565,5.358,5.358,0,0,1-3.772,1.515,5.525,5.525,0,0,1-3.375-1.14,4.8,4.8,0,0,1-1.913-2.876l1.824-.386a2.938,2.938,0,0,0,1.2,1.764" transform="translate(1047.002 187)" fill="#b59063"></path>
    <rect id="Rechteck_17087" data-name="Rechteck 17087" width="595.281" height="788.913" transform="translate(1047 187)" fill="none"></rect>
    <path id="Pfad_3032" data-name="Pfad 3032" d="M191.57,679.738h6.47V681.6h-6.47v6.054h7.9v1.866H189.71V671.818h9.756v1.86h-7.9Z" transform="translate(1047.002 187)" fill="#b59063"></path>
    <rect id="Rechteck_17088" data-name="Rechteck 17088" width="1.854" height="17.7" transform="translate(1257.862 858.824)" fill="#b59063"></rect>
    <path id="Pfad_3033" data-name="Pfad 3033" d="M226.678,679.738h6.47V681.6h-6.47v6.054h7.9v1.866h-9.75V671.818h9.75v1.86h-7.9Z" transform="translate(1047.002 187)" fill="#b59063"></path>
    <path id="Pfad_3034" data-name="Pfad 3034" d="M246.888,673.69v7.825h4.765a3.947,3.947,0,0,0,3.91-3.916,3.926,3.926,0,0,0-3.91-3.909Zm8.093,15.834-4.017-6.156h-4.076v6.156h-1.853v-17.7h6.618a5.768,5.768,0,0,1,4.076,9.851,5.657,5.657,0,0,1-2.661,1.521l4.117,6.328Z" transform="translate(1047.002 187)" fill="#b59063"></path>
    <path id="Pfad_3035" data-name="Pfad 3035" d="M303.555,687.293a3.751,3.751,0,0,0,2.264.773,3.613,3.613,0,0,0,2.513-1,2.952,2.952,0,0,0,1.028-2.211,2.709,2.709,0,0,0-1.076-2.37,7,7,0,0,0-2.358-.862,9.619,9.619,0,0,1-3.339-1.283,4.465,4.465,0,0,1-1.533-3.773,5.091,5.091,0,0,1,5.092-5.08,5.107,5.107,0,0,1,4.533,2.781l-1.658.837a3.225,3.225,0,0,0-6.1,1.462A2.7,2.7,0,0,0,304,678.934a7.4,7.4,0,0,0,2.358.861,9.647,9.647,0,0,1,3.34,1.284,4.477,4.477,0,0,1,1.527,3.772,4.681,4.681,0,0,1-1.634,3.565,5.361,5.361,0,0,1-3.773,1.515,5.525,5.525,0,0,1-3.375-1.14,4.782,4.782,0,0,1-1.913-2.876l1.824-.386a2.946,2.946,0,0,0,1.2,1.764" transform="translate(1047.002 187)" fill="#b59063"></path>
    <path id="Pfad_3036" data-name="Pfad 3036" d="M325.772,673.325a6.737,6.737,0,0,0-5.044,2.115,7.693,7.693,0,0,0,0,10.522,7.07,7.07,0,0,0,10.088,0,7.726,7.726,0,0,0,0-10.522,6.774,6.774,0,0,0-5.044-2.115m6.375.82a9.559,9.559,0,0,1,0,13.113,8.938,8.938,0,0,1-12.75,0,9.545,9.545,0,0,1,0-13.113,8.936,8.936,0,0,1,12.75,0" transform="translate(1047.002 187)" fill="#b59063"></path>
    <path id="Pfad_3037" data-name="Pfad 3037" d="M353.3,671.821V683.4a6.538,6.538,0,1,1-13.077,0V671.821h1.854V683.4a4.679,4.679,0,0,0,9.358,0V671.821Z" transform="translate(1047.002 187)" fill="#b59063"></path>
    <rect id="Rechteck_17089" data-name="Rechteck 17089" width="595.281" height="788.913" transform="translate(1047 187)" fill="none"></rect>
    <path id="Pfad_3038" data-name="Pfad 3038" d="M358.694,671.821h11.223v1.866h-4.682v15.834h-1.86V673.687h-4.682Z" transform="translate(1047.002 187)" fill="#b59063"></path>
    <path id="Pfad_3039" data-name="Pfad 3039" d="M389.341,671.821v17.7h-1.866v-7.914H377.161v7.914h-1.854v-17.7h1.854v7.92h10.314v-7.92Z" transform="translate(1047.002 187)" fill="#b59063"></path>
    <path id="Pfad_3040" data-name="Pfad 3040" d="M404.92,671.821h11.223v1.866h-4.682v15.834H409.6V673.687H404.92Z" transform="translate(1047.002 187)" fill="#b59063"></path>
    <path id="Pfad_3041" data-name="Pfad 3041" d="M435.747,671.821l-7.124,11.865v5.835h-1.854v-5.835l-7.136-11.865h2.157l5.912,9.809,5.894-9.809Z" transform="translate(1047.002 187)" fill="#b59063"></path>
    <path id="Pfad_3042" data-name="Pfad 3042" d="M441.648,673.69v7.825h4.765a3.913,3.913,0,0,0,0-7.825Zm8.093,15.834-4.017-6.156h-4.076v6.156H439.8v-17.7h6.618a5.768,5.768,0,0,1,4.076,9.851,5.66,5.66,0,0,1-2.662,1.521l4.118,6.328Z" transform="translate(1047.002 187)" fill="#b59063"></path>
    <path id="Pfad_3043" data-name="Pfad 3043" d="M465.926,673.325a6.739,6.739,0,0,0-5.045,2.115,7.7,7.7,0,0,0,0,10.522,7.071,7.071,0,0,0,10.089,0,7.726,7.726,0,0,0,0-10.522,6.774,6.774,0,0,0-5.044-2.115m6.375.82a9.561,9.561,0,0,1,0,13.113,8.94,8.94,0,0,1-12.751,0,9.561,9.561,0,0,1,0-13.113,8.937,8.937,0,0,1,12.751,0" transform="translate(1047.002 187)" fill="#b59063"></path>
    <rect id="Rechteck_17090" data-name="Rechteck 17090" width="595.281" height="788.913" transform="translate(1047 187)" fill="none"></rect>
    <path id="Pfad_3044" data-name="Pfad 3044" d="M482.237,671.821v15.846h10.124v1.854H480.378v-17.7Z" transform="translate(1047.002 187)" fill="#b59063"></path>
  </g>
</svg>
